<svg height="484pt" viewBox="0 -24 484.42957 484" width="484pt" xmlns="http://www.w3.org/2000/svg" xmlns:xlink="http://www.w3.org/1999/xlink"><linearGradient id="a" gradientUnits="userSpaceOnUse" x1="242.179333" x2="242.179333" y1="13.389898" y2="431.982898"><stop offset="0" stop-color="#00efd1"/><stop offset="1" stop-color="#00acea"/></linearGradient><path d="m469.246094 368.777344c-7.867188-5.722656-17.699219-8.058594-27.296875-6.488282-6.730469 1.054688-13.03125 3.949219-18.222657 8.359376l-37.851562-27.246094v-159.101563c.066406-3.09375-1.6875-5.941406-4.488281-7.265625l-132.511719-61.058594v-43.140624c18.335938-3.59375 31.03125-20.40625 29.472656-39.027344-1.5625-18.621094-16.878906-33.085938-35.554687-33.582032-18.679688-.492187-34.742188 13.140626-37.285157 31.652344-2.542968 18.511719 9.246094 35.972656 27.367188 40.53125v43.824219l-132.238281 60.800781c-2.863281 1.292969-4.71875 4.125-4.761719 7.265625v160.597657l-35.5 25.753906c-12.835938-11.03125-31.566406-11.808594-45.273438-1.875-12.839843 9.386718-18.210937 25.957031-13.3125 41.09375 4.898438 15.132812 18.953126 25.417968 34.863282 25.503906 7.441406 0 14.953125-2.699219 21.433594-6.699219 14.320312-11 18.941406-29.445312 11.964843-44.964843l35.800781-26.007813 131.953126 60.65625c2.132812.953125 4.570312.933594 6.6875-.046875l133.222656-61.304688 36.609375 26.46875c-7.09375 15.859376-2.101563 34.523438 11.964843 44.71875 16.40625 11.863282 39.328126 8.179688 51.1875-8.230468 11.863282-16.40625 8.179688-39.324219-8.230468-51.1875zm-228.097656-129.808594-117.976563-54.644531 117.980469-54.285157 117.980468 54.285157zm-19.976563-202.105469c0-11.410156 9.25-20.660156 20.660156-20.660156 11.410157 0 20.660157 9.25 20.660157 20.660156 0 11.410157-9.25 20.660157-20.660157 20.660157-11.402343-.011719-20.644531-9.253907-20.660156-20.660157zm-172.457031 378.363281c-7.246094 5.234376-17.035156 5.21875-24.261719-.039062-7.226563-5.261719-10.25-14.570312-7.492187-23.074219 2.753906-8.5 10.667968-14.265625 19.605468-14.285156 1.113282 0 2.222656.089844 3.320313.265625 8.25 1.328125 14.890625 7.492188 16.820312 15.621094 1.933594 8.128906-1.222656 16.621094-7.992187 21.515625zm63.160156-218.40625 121 56.078126v145.644531l-121-55.703125zm137 201.722657v-145.644531l121-56.078126v146.019532zm215.632812 12.046875c-6.691406 9.234375-19.59375 11.308594-28.84375 4.636718-9.246093-6.683593-11.324218-19.597656-4.636718-28.847656 6.683594-9.246094 19.597656-11.320312 28.84375-4.636718 9.246094 6.6875 11.324218 19.601562 4.636718 28.847656zm0 0" fill="url(#a)"/></svg>