<svg height="484pt" viewBox="0 -25 484.3666 484" width="484pt" xmlns="http://www.w3.org/2000/svg"><path d="m469.1875 368.746094c-7.871094-5.722656-17.699219-8.058594-27.300781-6.488282-6.726563 1.054688-13.03125 3.949219-18.21875 8.359376l-37.855469-27.246094v-159.101563c.070312-3.09375-1.6875-5.941406-4.484375-7.265625l-132.515625-61.058594v-43.140624c18.335938-3.59375 31.03125-20.40625 29.472656-39.027344s-16.875-33.085938-35.554687-33.582032c-18.675781-.492187-34.738281 13.140626-37.28125 31.652344-2.542969 18.511719 9.242187 35.972656 27.363281 40.53125v43.824219l-132.238281 60.800781c-2.859375 1.292969-4.714844 4.125-4.761719 7.261719v160.601563l-35.5 25.753906c-12.835938-11.03125-31.566406-11.808594-45.269531-1.875-16.300781 11.902344-19.917969 34.746094-8.085938 51.101562 11.832031 16.355469 34.660157 20.070313 51.066407 8.3125 14.066406-10.199218 19.0625-28.863281 11.96875-44.722656l35.800781-25.886719 131.953125 60.714844c2.121094.976563 4.566406.976563 6.6875 0l133.222656-61.300781 36.605469 26.46875c-7.09375 15.863281-2.101563 34.527344 11.964843 44.726562 16.410157 11.863282 39.324219 8.179688 51.1875-8.230468 11.863282-16.40625 8.179688-39.324219-8.226562-51.183594zm-228.101562-129.8125-117.972657-54.640625 117.976563-54.285157 117.980468 54.285157zm-19.972657-202.101563c0-11.410156 9.25-20.660156 20.660157-20.660156 11.40625 0 20.65625 9.25 20.65625 20.660156 0 11.410157-9.25 20.660157-20.65625 20.660157-11.40625-.011719-20.648438-9.253907-20.660157-20.660157zm-172.460937 378.363281c-7.242188 5.234376-17.03125 5.21875-24.257813-.039062-7.226562-5.261719-10.25-14.570312-7.496093-23.074219 2.757812-8.5 10.667968-14.265625 19.605468-14.285156 1.113282 0 2.222656.089844 3.324219.265625 8.25 1.328125 14.886719 7.492188 16.820313 15.621094 1.929687 8.128906-1.226563 16.621094-7.996094 21.515625zm63.160156-218.40625 121 56.078126v145.644531l-121-55.707031zm137 201.722657v-145.644531l121-56.078126v146.015626zm215.636719 12.046875c-6.695313 9.234375-19.597657 11.308594-28.847657 4.636718-9.246093-6.683593-11.320312-19.601562-4.636718-28.847656s19.601562-11.320312 28.847656-4.636718c9.246094 6.6875 11.320312 19.601562 4.636719 28.847656zm0 0"/></svg>